<svg width="35" height="35" viewBox="0 0 35 35" fill="none" xmlns="http://www.w3.org/2000/svg">
<path d="M26.9636 20.3197H18.0286C17.0403 20.3022 16.0973 19.9018 15.3984 19.2029C14.6995 18.5039 14.2991 17.561 14.2816 16.5727V7.78169C14.3268 7.52557 14.3098 7.26233 14.2318 7.01422C14.1538 6.7661 14.0173 6.5404 13.8337 6.3562C13.65 6.17201 13.4248 6.03472 13.1769 5.95596C12.9291 5.8772 12.6659 5.85927 12.4096 5.90369C9.74885 6.29033 7.24806 7.40941 5.18683 9.13582C3.12561 10.8622 1.58518 13.1279 0.737774 15.6796C-0.109635 18.2313 -0.230625 20.9684 0.388329 23.5849C1.00728 26.2013 2.34178 28.5941 4.24264 30.4957C6.1435 32.3972 8.53578 33.7326 11.1521 34.3525C13.7683 34.9724 16.5054 34.8524 19.0574 34.006C21.6094 33.1595 23.8757 31.6199 25.6028 29.5593C27.33 27.4987 28.45 24.9983 28.8376 22.3377C28.873 22.0767 28.8501 21.8112 28.7705 21.5601C28.6909 21.3091 28.5567 21.0788 28.3775 20.8858C28.1983 20.6928 27.9786 20.542 27.7341 20.4441C27.4896 20.3462 27.2265 20.3037 26.9636 20.3197Z" fill="black"/>
<path d="M34.6016 15.421C34.1594 11.4861 32.3787 7.82261 29.5576 5.044C26.7594 2.25102 23.1065 0.475315 19.1816 0C18.6873 0.00873229 18.2157 0.208974 17.8662 0.558543C17.5166 0.908111 17.3163 1.37971 17.3076 1.874V16C17.3084 16.3819 17.4605 16.748 17.7306 17.0181C18.0006 17.2881 18.3667 17.4402 18.7486 17.441H32.8726C33.1252 17.4407 33.3746 17.3857 33.604 17.28C33.8333 17.1742 34.037 17.0201 34.2012 16.8283C34.3655 16.6364 34.4863 16.4113 34.5554 16.1684C34.6245 15.9255 34.6402 15.6706 34.6016 15.421Z" fill="black"/>
</svg>
