<svg width="32" height="26" viewBox="0 0 32 26" fill="none" xmlns="http://www.w3.org/2000/svg">
<path d="M27.723 4.818H23.906C23.9031 3.8063 23.4999 2.83686 22.7845 2.12147C22.0691 1.40609 21.0997 1.0029 20.088 1H4.818C3.8063 1.0029 2.83686 1.40609 2.12147 2.12147C1.40609 2.83686 1.0029 3.8063 1 4.818L1 13.726C1.0029 14.7377 1.40609 15.7071 2.12147 16.4225C2.83686 17.1379 3.8063 17.5411 4.818 17.544V21.362L8.636 17.544C8.6389 18.5557 9.04209 19.5251 9.75747 20.2405C10.4729 20.9559 11.4423 21.3591 12.454 21.362H22.634L26.452 25.18V21.361H27.725C28.7367 21.3581 29.7061 20.9549 30.4215 20.2395C31.1369 19.5241 31.5401 18.5547 31.543 17.543V8.635C31.5398 7.62312 31.1363 6.65364 30.4205 5.93841C29.7047 5.22319 28.7349 4.82037 27.723 4.818ZM4.818 15C4.48175 14.9956 4.16051 14.8601 3.92272 14.6223C3.68494 14.3845 3.5494 14.0633 3.545 13.727V4.818C3.5494 4.48175 3.68494 4.16051 3.92272 3.92272C4.16051 3.68494 4.48175 3.5494 4.818 3.545H20.088C20.4243 3.5494 20.7455 3.68494 20.9833 3.92272C21.2211 4.16051 21.3566 4.48175 21.361 4.818V6.09H13.089C12.2456 6.09079 11.437 6.42619 10.8406 7.02257C10.2442 7.61895 9.90879 8.42759 9.908 9.271V15H4.818ZM29 17.543C28.9956 17.8793 28.8601 18.2005 28.6223 18.4383C28.3845 18.6761 28.0633 18.8116 27.727 18.816H12.453C12.1167 18.8116 11.7955 18.6761 11.5577 18.4383C11.3199 18.2005 11.1844 17.8793 11.18 17.543V9.271C11.1805 8.76486 11.3818 8.27961 11.7397 7.92172C12.0976 7.56383 12.5829 7.36253 13.089 7.362H27.723C28.0599 7.36537 28.3822 7.50044 28.6208 7.73834C28.8595 7.97623 28.9956 8.29806 29 8.635V17.543Z" fill="#132144" stroke="white" stroke-width="0.5"/>
</svg>
