<svg width="20" height="18" viewBox="0 0 20 18" fill="none" xmlns="http://www.w3.org/2000/svg">
<path d="M0 2.6582H20" stroke="#143F6B"/>
<path d="M0 8.82812H20" stroke="#143F6B"/>
<path d="M0 14.9941H20" stroke="#143F6B"/>
<path d="M3.78883 5.88235C5.4132 5.88235 6.73001 4.56554 6.73001 2.94118C6.73001 1.31681 5.4132 0 3.78883 0C2.16447 0 0.847656 1.31681 0.847656 2.94118C0.847656 4.56554 2.16447 5.88235 3.78883 5.88235Z" fill="#143F6B"/>
<path d="M15.5545 11.7652C17.1788 11.7652 18.4956 10.4484 18.4956 8.82399C18.4956 7.19962 17.1788 5.88281 15.5545 5.88281C13.9301 5.88281 12.6133 7.19962 12.6133 8.82399C12.6133 10.4484 13.9301 11.7652 15.5545 11.7652Z" fill="#143F6B"/>
<path d="M9.67164 17.648C11.296 17.648 12.6128 16.3312 12.6128 14.7068C12.6128 13.0824 11.296 11.7656 9.67164 11.7656C8.04728 11.7656 6.73047 13.0824 6.73047 14.7068C6.73047 16.3312 8.04728 17.648 9.67164 17.648Z" fill="#143F6B"/>
</svg>
