<svg width="20" height="29" viewBox="0 0 20 29" fill="none" xmlns="http://www.w3.org/2000/svg">
<g clip-path="url(#clip0_1374_597)">
<path fill-rule="evenodd" clip-rule="evenodd" d="M13.023 0.465956C12.0695 0.164748 11.0553 0 10.002 0C6.92908 0 4.17909 1.3891 2.3457 3.57133L7.06993 7.54575L13.0229 0.46587L13.023 0.465956Z" fill="#1A73E8"/>
<path fill-rule="evenodd" clip-rule="evenodd" d="M2.34259 3.57129C0.881955 5.30932 0 7.55225 0 9.99889C0 11.8799 0.374897 13.4034 0.990297 14.7687L7.06681 7.54572L2.34259 3.57129Z" fill="#EA4335"/>
<path fill-rule="evenodd" clip-rule="evenodd" d="M10.0007 6.17613C12.1136 6.17613 13.8256 7.8881 13.8256 10.001C13.8256 10.9415 13.4853 11.8041 12.9219 12.4693C12.9219 12.4693 15.9429 8.87633 18.8749 5.39159C17.6634 3.06198 15.5636 1.26979 13.0237 0.46582L7.06641 7.54571C7.76856 6.70709 8.8218 6.17613 10.0007 6.17613Z" fill="#4285F4"/>
<path fill-rule="evenodd" clip-rule="evenodd" d="M10.001 13.8242C7.88809 13.8242 6.17611 12.1122 6.17611 9.99926C6.17611 9.0652 6.51197 8.20922 7.06675 7.54395L0.990234 14.7691C2.02825 17.0727 3.75545 18.9212 5.53466 21.2507L12.9201 12.4697C12.22 13.2976 11.1712 13.8242 10.001 13.8242Z" fill="#FBBC04"/>
<path fill-rule="evenodd" clip-rule="evenodd" d="M12.7752 23.6471C16.1103 18.431 20.0002 16.0623 20.0002 9.9988C20.0002 8.33661 19.5928 6.76987 18.8755 5.3916L5.53711 21.2504C6.10272 21.9916 6.67264 22.7803 7.22956 23.6494C9.25797 26.783 8.6945 28.6618 10.0035 28.6618C11.308 28.6618 10.7467 26.7808 12.7752 23.6471Z" fill="#34A853"/>
</g>
<defs>
<clipPath id="clip0_1374_597">
<rect width="20" height="28.6618" fill="white"/>
</clipPath>
</defs>
</svg>
