<svg width="1387" height="447" viewBox="0 0 1387 447" fill="none" xmlns="http://www.w3.org/2000/svg">
<path d="M8.04346 15.3643C8.04346 15.9453 7.94385 16.471 7.74463 16.9414C7.54541 17.4118 7.26042 17.8158 6.88965 18.1533C6.52441 18.4909 6.08171 18.751 5.56152 18.9336C5.04134 19.1162 4.46305 19.2075 3.82666 19.2075C2.71989 19.2075 1.89811 19.0415 1.36133 18.7095V17.2651C2.16927 17.7853 2.99658 18.0454 3.84326 18.0454C4.2749 18.0454 4.66227 17.9818 5.00537 17.8545C5.354 17.7272 5.65007 17.5501 5.89355 17.3232C6.13704 17.0964 6.32243 16.8224 6.44971 16.5015C6.58252 16.1805 6.64893 15.8291 6.64893 15.4473C6.64893 14.6725 6.38883 14.0666 5.86865 13.6294C5.34847 13.1867 4.5931 12.9653 3.60254 12.9653C3.44206 12.9653 3.27327 12.9681 3.09619 12.9736C2.91911 12.9792 2.74202 12.9875 2.56494 12.9985C2.38786 13.0041 2.21354 13.0124 2.04199 13.0234C1.87598 13.0345 1.7238 13.0483 1.58545 13.0649L1.99219 7.09668H7.49561V8.3252H3.1709L2.93018 11.8198C3.10726 11.8088 3.29541 11.8005 3.49463 11.7949C3.69385 11.7839 3.87093 11.7783 4.02588 11.7783C4.65674 11.7783 5.22119 11.8613 5.71924 12.0273C6.21729 12.1934 6.63786 12.4313 6.98096 12.7412C7.32959 13.0456 7.59245 13.4219 7.76953 13.8701C7.95215 14.3128 8.04346 14.8109 8.04346 15.3643ZM17.6309 12.9985C17.6309 13.9946 17.5396 14.8773 17.3569 15.6465C17.1799 16.4157 16.9198 17.0659 16.5767 17.5972C16.2391 18.1229 15.8213 18.5241 15.3232 18.8008C14.8307 19.0719 14.269 19.2075 13.6382 19.2075C13.0405 19.2075 12.5065 19.0775 12.0361 18.8174C11.5713 18.5518 11.1784 18.1672 10.8574 17.6636C10.5365 17.16 10.293 16.543 10.127 15.8125C9.96094 15.0765 9.87793 14.2354 9.87793 13.2891C9.87793 12.2487 9.9637 11.3301 10.1353 10.5332C10.3123 9.73633 10.5697 9.0695 10.9072 8.53271C11.2448 7.9904 11.6626 7.58366 12.1606 7.3125C12.6642 7.03581 13.2397 6.89746 13.8872 6.89746C16.383 6.89746 17.6309 8.93115 17.6309 12.9985ZM16.2363 13.1313C16.2363 9.74463 15.4312 8.05127 13.8208 8.05127C12.1219 8.05127 11.2725 9.77507 11.2725 13.2227C11.2725 16.4378 12.1053 18.0454 13.771 18.0454C15.4146 18.0454 16.2363 16.4074 16.2363 13.1313ZM26.7949 12.9985C26.7949 13.9946 26.7036 14.8773 26.521 15.6465C26.3439 16.4157 26.0838 17.0659 25.7407 17.5972C25.4032 18.1229 24.9854 18.5241 24.4873 18.8008C23.9948 19.0719 23.4331 19.2075 22.8022 19.2075C22.2046 19.2075 21.6706 19.0775 21.2002 18.8174C20.7354 18.5518 20.3424 18.1672 20.0215 17.6636C19.7005 17.16 19.457 16.543 19.291 15.8125C19.125 15.0765 19.042 14.2354 19.042 13.2891C19.042 12.2487 19.1278 11.3301 19.2993 10.5332C19.4764 9.73633 19.7337 9.0695 20.0713 8.53271C20.4089 7.9904 20.8267 7.58366 21.3247 7.3125C21.8283 7.03581 22.4038 6.89746 23.0513 6.89746C25.547 6.89746 26.7949 8.93115 26.7949 12.9985ZM25.4004 13.1313C25.4004 9.74463 24.5952 8.05127 22.9849 8.05127C21.286 8.05127 20.4365 9.77507 20.4365 13.2227C20.4365 16.4378 21.2694 18.0454 22.9351 18.0454C24.5786 18.0454 25.4004 16.4074 25.4004 13.1313Z" fill="#1E2022"/>
<path d="M57.5 13.5H1386.5" stroke="#E7EAF3"/>
<path d="M28.4668 405.999C28.4668 406.995 28.3755 407.877 28.1929 408.646C28.0158 409.416 27.7557 410.066 27.4126 410.597C27.075 411.123 26.6572 411.524 26.1592 411.801C25.6667 412.072 25.105 412.208 24.4741 412.208C23.8765 412.208 23.3424 412.077 22.8721 411.817C22.4072 411.552 22.0143 411.167 21.6934 410.664C21.3724 410.16 21.1289 409.543 20.9629 408.812C20.7969 408.076 20.7139 407.235 20.7139 406.289C20.7139 405.249 20.7996 404.33 20.9712 403.533C21.1483 402.736 21.4056 402.069 21.7432 401.533C22.0807 400.99 22.4985 400.584 22.9966 400.312C23.5002 400.036 24.0757 399.897 24.7231 399.897C27.2189 399.897 28.4668 401.931 28.4668 405.999ZM27.0723 406.131C27.0723 402.745 26.2671 401.051 24.6567 401.051C22.9578 401.051 22.1084 402.775 22.1084 406.223C22.1084 409.438 22.9412 411.045 24.6069 411.045C26.2505 411.045 27.0723 409.407 27.0723 406.131Z" fill="#1E2022"/>
<path d="M1004 34H995V406H1004V34Z" fill="#B6C867"/>
<path d="M681 358H666V404H681V358Z" fill="#B6C867"/>
<path d="M57.5 404.5H1386.5" stroke="#E7EAF3"/>
<path d="M114.607 438.733C114.607 440.145 114.308 441.243 113.71 442.029C113.113 442.809 112.313 443.199 111.312 443.199C110.847 443.199 110.465 443.133 110.166 443V441.622C110.465 441.838 110.852 441.946 111.328 441.946C112.584 441.946 113.212 440.881 113.212 438.75V431.097H114.607V438.733ZM123.539 443H122.177V441.672H122.144C121.552 442.69 120.68 443.199 119.529 443.199C118.683 443.199 118.019 442.975 117.537 442.527C117.061 442.079 116.823 441.484 116.823 440.742C116.823 439.154 117.758 438.23 119.629 437.97L122.177 437.613C122.177 436.168 121.593 435.446 120.426 435.446C119.402 435.446 118.478 435.795 117.653 436.492V435.098C118.489 434.566 119.452 434.301 120.542 434.301C122.54 434.301 123.539 435.358 123.539 437.472V443ZM122.177 438.7L120.127 438.982C119.496 439.071 119.02 439.229 118.699 439.456C118.378 439.677 118.218 440.073 118.218 440.643C118.218 441.058 118.364 441.398 118.658 441.664C118.957 441.924 119.352 442.054 119.845 442.054C120.52 442.054 121.076 441.819 121.513 441.348C121.956 440.872 122.177 440.272 122.177 439.547V438.7ZM133.159 443H131.798V438.152C131.798 436.348 131.139 435.446 129.822 435.446C129.142 435.446 128.577 435.704 128.129 436.218C127.686 436.727 127.465 437.372 127.465 438.152V443H126.104V434.5H127.465V435.911H127.498C128.14 434.838 129.07 434.301 130.287 434.301C131.217 434.301 131.928 434.602 132.42 435.206C132.913 435.803 133.159 436.669 133.159 437.804V443Z" fill="#97A4AF"/>
<path d="M227.604 432.358H222.955V436.476H227.255V437.729H222.955V443H221.561V431.097H227.604V432.358ZM236.51 439.09H230.509C230.531 440.037 230.785 440.767 231.272 441.282C231.759 441.796 232.429 442.054 233.281 442.054C234.239 442.054 235.118 441.738 235.921 441.107V442.386C235.174 442.928 234.186 443.199 232.958 443.199C231.757 443.199 230.813 442.815 230.127 442.045C229.441 441.271 229.098 440.183 229.098 438.783C229.098 437.461 229.471 436.384 230.218 435.554C230.971 434.719 231.903 434.301 233.016 434.301C234.128 434.301 234.988 434.66 235.597 435.38C236.206 436.099 236.51 437.098 236.51 438.376V439.09ZM235.116 437.937C235.11 437.151 234.919 436.539 234.543 436.102C234.172 435.665 233.655 435.446 232.991 435.446C232.349 435.446 231.804 435.676 231.355 436.135C230.907 436.595 230.631 437.195 230.525 437.937H235.116ZM239.972 441.771H239.938V443H238.577V430.416H239.938V435.994H239.972C240.641 434.865 241.621 434.301 242.91 434.301C244 434.301 244.853 434.683 245.467 435.446C246.087 436.204 246.396 437.223 246.396 438.501C246.396 439.923 246.051 441.063 245.359 441.921C244.667 442.773 243.721 443.199 242.52 443.199C241.397 443.199 240.547 442.723 239.972 441.771ZM239.938 438.343V439.53C239.938 440.233 240.165 440.831 240.619 441.323C241.078 441.81 241.66 442.054 242.362 442.054C243.187 442.054 243.832 441.738 244.296 441.107C244.767 440.477 245.002 439.599 245.002 438.476C245.002 437.53 244.783 436.788 244.346 436.251C243.909 435.715 243.317 435.446 242.57 435.446C241.778 435.446 241.142 435.723 240.661 436.276C240.179 436.824 239.938 437.513 239.938 438.343Z" fill="#97A4AF"/>
<path d="M343.696 443H342.31V435.015C342.31 434.384 342.349 433.612 342.426 432.699H342.393C342.26 433.236 342.141 433.62 342.036 433.853L337.969 443H337.288L333.229 433.919C333.113 433.653 332.994 433.247 332.872 432.699H332.839C332.883 433.175 332.905 433.952 332.905 435.031V443H331.561V431.097H333.403L337.056 439.397C337.338 440.034 337.521 440.51 337.604 440.825H337.653C337.891 440.172 338.082 439.685 338.226 439.364L341.953 431.097H343.696V443ZM352.736 443H351.375V441.672H351.341C350.749 442.69 349.878 443.199 348.727 443.199C347.88 443.199 347.216 442.975 346.734 442.527C346.258 442.079 346.021 441.484 346.021 440.742C346.021 439.154 346.956 438.23 348.826 437.97L351.375 437.613C351.375 436.168 350.791 435.446 349.623 435.446C348.599 435.446 347.675 435.795 346.851 436.492V435.098C347.686 434.566 348.649 434.301 349.739 434.301C351.737 434.301 352.736 435.358 352.736 437.472V443ZM351.375 438.7L349.324 438.982C348.693 439.071 348.217 439.229 347.896 439.456C347.576 439.677 347.415 440.073 347.415 440.643C347.415 441.058 347.562 441.398 347.855 441.664C348.154 441.924 348.549 442.054 349.042 442.054C349.717 442.054 350.273 441.819 350.71 441.348C351.153 440.872 351.375 440.272 351.375 439.547V438.7ZM359.733 435.878C359.495 435.695 359.152 435.604 358.704 435.604C358.123 435.604 357.636 435.878 357.243 436.426C356.856 436.974 356.662 437.721 356.662 438.667V443H355.301V434.5H356.662V436.251H356.695C356.889 435.654 357.185 435.189 357.583 434.857C357.982 434.519 358.427 434.351 358.92 434.351C359.274 434.351 359.545 434.389 359.733 434.467V435.878Z" fill="#97A4AF"/>
<path d="M447.774 443H446.23L444.969 439.663H439.922L438.735 443H437.183L441.748 431.097H443.192L447.774 443ZM444.512 438.41L442.645 433.338C442.584 433.172 442.523 432.906 442.462 432.541H442.429C442.373 432.879 442.31 433.144 442.238 433.338L440.387 438.41H444.512ZM450.746 441.771H450.713V446.91H449.352V434.5H450.713V435.994H450.746C451.416 434.865 452.395 434.301 453.685 434.301C454.78 434.301 455.635 434.683 456.25 435.446C456.864 436.204 457.171 437.223 457.171 438.501C457.171 439.923 456.825 441.063 456.133 441.921C455.442 442.773 454.495 443.199 453.294 443.199C452.193 443.199 451.344 442.723 450.746 441.771ZM450.713 438.343V439.53C450.713 440.233 450.94 440.831 451.394 441.323C451.853 441.81 452.434 442.054 453.137 442.054C453.961 442.054 454.606 441.738 455.071 441.107C455.541 440.477 455.776 439.599 455.776 438.476C455.776 437.53 455.558 436.788 455.121 436.251C454.683 435.715 454.091 435.446 453.344 435.446C452.553 435.446 451.917 435.723 451.435 436.276C450.954 436.824 450.713 437.513 450.713 438.343ZM463.778 435.878C463.54 435.695 463.197 435.604 462.749 435.604C462.168 435.604 461.681 435.878 461.288 436.426C460.901 436.974 460.707 437.721 460.707 438.667V443H459.346V434.5H460.707V436.251H460.74C460.934 435.654 461.23 435.189 461.628 434.857C462.027 434.519 462.472 434.351 462.965 434.351C463.319 434.351 463.59 434.389 463.778 434.467V435.878ZM465.953 432.342C465.71 432.342 465.502 432.259 465.331 432.093C465.159 431.927 465.073 431.716 465.073 431.462C465.073 431.207 465.159 430.997 465.331 430.831C465.502 430.66 465.71 430.574 465.953 430.574C466.202 430.574 466.412 430.66 466.584 430.831C466.761 430.997 466.85 431.207 466.85 431.462C466.85 431.705 466.761 431.913 466.584 432.084C466.412 432.256 466.202 432.342 465.953 432.342ZM466.617 443H465.256V434.5H466.617V443ZM470.734 443H469.373V430.416H470.734V443Z" fill="#97A4AF"/>
<path d="M560.696 443H559.31V435.015C559.31 434.384 559.349 433.612 559.426 432.699H559.393C559.26 433.236 559.141 433.62 559.036 433.853L554.969 443H554.288L550.229 433.919C550.113 433.653 549.994 433.247 549.872 432.699H549.839C549.883 433.175 549.905 433.952 549.905 435.031V443H548.561V431.097H550.403L554.056 439.397C554.338 440.034 554.521 440.51 554.604 440.825H554.653C554.891 440.172 555.082 439.685 555.226 439.364L558.953 431.097H560.696V443ZM569.736 443H568.375V441.672H568.341C567.749 442.69 566.878 443.199 565.727 443.199C564.88 443.199 564.216 442.975 563.734 442.527C563.258 442.079 563.021 441.484 563.021 440.742C563.021 439.154 563.956 438.23 565.826 437.97L568.375 437.613C568.375 436.168 567.791 435.446 566.623 435.446C565.599 435.446 564.675 435.795 563.851 436.492V435.098C564.686 434.566 565.649 434.301 566.739 434.301C568.737 434.301 569.736 435.358 569.736 437.472V443ZM568.375 438.7L566.324 438.982C565.693 439.071 565.217 439.229 564.896 439.456C564.576 439.677 564.415 440.073 564.415 440.643C564.415 441.058 564.562 441.398 564.855 441.664C565.154 441.924 565.549 442.054 566.042 442.054C566.717 442.054 567.273 441.819 567.71 441.348C568.153 440.872 568.375 440.272 568.375 439.547V438.7ZM579.066 434.5L575.156 444.361C574.459 446.121 573.479 447.001 572.218 447.001C571.864 447.001 571.568 446.965 571.33 446.893V445.673C571.623 445.772 571.891 445.822 572.135 445.822C572.821 445.822 573.336 445.413 573.679 444.594L574.359 442.983L571.039 434.5H572.55L574.849 441.041C574.877 441.124 574.935 441.34 575.023 441.688H575.073C575.101 441.556 575.156 441.345 575.239 441.058L577.655 434.5H579.066Z" fill="#97A4AF"/>
<path d="M663.607 438.733C663.607 440.145 663.308 441.243 662.71 442.029C662.113 442.809 661.313 443.199 660.312 443.199C659.847 443.199 659.465 443.133 659.166 443V441.622C659.465 441.838 659.852 441.946 660.328 441.946C661.584 441.946 662.212 440.881 662.212 438.75V431.097H663.607V438.733ZM673.327 443H671.966V441.655H671.933C671.368 442.685 670.494 443.199 669.31 443.199C667.284 443.199 666.271 441.993 666.271 439.58V434.5H667.625V439.364C667.625 441.157 668.311 442.054 669.683 442.054C670.347 442.054 670.892 441.81 671.318 441.323C671.75 440.831 671.966 440.189 671.966 439.397V434.5H673.327V443ZM683.139 443H681.777V438.152C681.777 436.348 681.119 435.446 679.802 435.446C679.121 435.446 678.557 435.704 678.108 436.218C677.666 436.727 677.444 437.372 677.444 438.152V443H676.083V434.5H677.444V435.911H677.478C678.119 434.838 679.049 434.301 680.267 434.301C681.196 434.301 681.907 434.602 682.4 435.206C682.892 435.803 683.139 436.669 683.139 437.804V443Z" fill="#97A4AF"/>
<path d="M774.607 438.733C774.607 440.145 774.308 441.243 773.71 442.029C773.113 442.809 772.313 443.199 771.312 443.199C770.847 443.199 770.465 443.133 770.166 443V441.622C770.465 441.838 770.852 441.946 771.328 441.946C772.584 441.946 773.212 440.881 773.212 438.75V431.097H774.607V438.733ZM784.327 443H782.966V441.655H782.933C782.368 442.685 781.494 443.199 780.31 443.199C778.284 443.199 777.271 441.993 777.271 439.58V434.5H778.625V439.364C778.625 441.157 779.311 442.054 780.683 442.054C781.347 442.054 781.892 441.81 782.318 441.323C782.75 440.831 782.966 440.189 782.966 439.397V434.5H784.327V443ZM788.444 443H787.083V430.416H788.444V443Z" fill="#97A4AF"/>
<path d="M888.774 443H887.23L885.969 439.663H880.922L879.735 443H878.183L882.748 431.097H884.192L888.774 443ZM885.512 438.41L883.645 433.338C883.584 433.172 883.523 432.906 883.462 432.541H883.429C883.373 432.879 883.31 433.144 883.238 433.338L881.387 438.41H885.512ZM897.225 443H895.863V441.655H895.83C895.266 442.685 894.391 443.199 893.207 443.199C891.182 443.199 890.169 441.993 890.169 439.58V434.5H891.522V439.364C891.522 441.157 892.208 442.054 893.581 442.054C894.245 442.054 894.79 441.81 895.216 441.323C895.647 440.831 895.863 440.189 895.863 439.397V434.5H897.225V443ZM907.235 442.319C907.235 445.44 905.741 447.001 902.753 447.001C901.701 447.001 900.783 446.802 899.997 446.403V445.042C900.954 445.573 901.868 445.839 902.736 445.839C904.828 445.839 905.874 444.727 905.874 442.502V441.572H905.841C905.193 442.657 904.219 443.199 902.919 443.199C901.862 443.199 901.01 442.823 900.362 442.07C899.72 441.312 899.399 440.297 899.399 439.024C899.399 437.58 899.745 436.431 900.437 435.579C901.134 434.727 902.086 434.301 903.292 434.301C904.438 434.301 905.287 434.76 905.841 435.679H905.874V434.5H907.235V442.319ZM905.874 439.157V437.903C905.874 437.228 905.644 436.65 905.185 436.168C904.731 435.687 904.164 435.446 903.483 435.446C902.642 435.446 901.984 435.753 901.508 436.368C901.032 436.976 900.794 437.831 900.794 438.933C900.794 439.879 901.021 440.637 901.475 441.207C901.934 441.771 902.54 442.054 903.292 442.054C904.056 442.054 904.676 441.783 905.152 441.24C905.633 440.698 905.874 440.003 905.874 439.157Z" fill="#97A4AF"/>
<path d="M989.004 442.519V440.875C989.193 441.041 989.417 441.19 989.677 441.323C989.942 441.456 990.219 441.569 990.507 441.664C990.8 441.752 991.093 441.821 991.387 441.871C991.68 441.921 991.951 441.946 992.2 441.946C993.058 441.946 993.697 441.788 994.118 441.473C994.544 441.152 994.757 440.692 994.757 440.095C994.757 439.774 994.685 439.494 994.541 439.256C994.403 439.018 994.209 438.803 993.96 438.609C993.711 438.41 993.415 438.222 993.072 438.044C992.734 437.862 992.369 437.671 991.976 437.472C991.561 437.261 991.174 437.048 990.814 436.833C990.454 436.617 990.142 436.379 989.876 436.119C989.61 435.859 989.4 435.565 989.245 435.239C989.096 434.907 989.021 434.519 989.021 434.077C989.021 433.534 989.14 433.064 989.378 432.666C989.616 432.262 989.929 431.93 990.316 431.669C990.703 431.409 991.143 431.216 991.636 431.088C992.134 430.961 992.64 430.897 993.155 430.897C994.328 430.897 995.183 431.039 995.72 431.321V432.89C995.017 432.403 994.115 432.159 993.014 432.159C992.709 432.159 992.405 432.192 992.101 432.259C991.796 432.32 991.525 432.422 991.287 432.566C991.049 432.71 990.855 432.895 990.706 433.122C990.557 433.349 990.482 433.626 990.482 433.952C990.482 434.257 990.537 434.519 990.648 434.741C990.764 434.962 990.933 435.164 991.154 435.347C991.376 435.529 991.644 435.706 991.959 435.878C992.28 436.049 992.648 436.238 993.063 436.442C993.49 436.653 993.894 436.874 994.275 437.106C994.657 437.339 994.992 437.596 995.28 437.878C995.568 438.161 995.794 438.473 995.96 438.816C996.132 439.16 996.218 439.552 996.218 439.995C996.218 440.582 996.102 441.08 995.869 441.489C995.642 441.893 995.332 442.222 994.939 442.477C994.552 442.732 994.104 442.914 993.595 443.025C993.086 443.141 992.549 443.199 991.984 443.199C991.796 443.199 991.564 443.183 991.287 443.149C991.01 443.122 990.728 443.077 990.44 443.017C990.153 442.961 989.879 442.892 989.619 442.809C989.364 442.721 989.159 442.624 989.004 442.519ZM1005.24 439.09H999.239C999.261 440.037 999.516 440.767 1000 441.282C1000.49 441.796 1001.16 442.054 1002.01 442.054C1002.97 442.054 1003.85 441.738 1004.65 441.107V442.386C1003.9 442.928 1002.92 443.199 1001.69 443.199C1000.49 443.199 999.544 442.815 998.857 442.045C998.171 441.271 997.828 440.183 997.828 438.783C997.828 437.461 998.202 436.384 998.949 435.554C999.701 434.719 1000.63 434.301 1001.75 434.301C1002.86 434.301 1003.72 434.66 1004.33 435.38C1004.94 436.099 1005.24 437.098 1005.24 438.376V439.09ZM1003.85 437.937C1003.84 437.151 1003.65 436.539 1003.27 436.102C1002.9 435.665 1002.39 435.446 1001.72 435.446C1001.08 435.446 1000.53 435.676 1000.09 436.135C999.638 436.595 999.361 437.195 999.256 437.937H1003.85ZM1008.7 441.771H1008.67V446.91H1007.31V434.5H1008.67V435.994H1008.7C1009.37 434.865 1010.35 434.301 1011.64 434.301C1012.74 434.301 1013.59 434.683 1014.21 435.446C1014.82 436.204 1015.13 437.223 1015.13 438.501C1015.13 439.923 1014.78 441.063 1014.09 441.921C1013.4 442.773 1012.45 443.199 1011.25 443.199C1010.15 443.199 1009.3 442.723 1008.7 441.771ZM1008.67 438.343V439.53C1008.67 440.233 1008.9 440.831 1009.35 441.323C1009.81 441.81 1010.39 442.054 1011.09 442.054C1011.92 442.054 1012.56 441.738 1013.03 441.107C1013.5 440.477 1013.73 439.599 1013.73 438.476C1013.73 437.53 1013.51 436.788 1013.08 436.251C1012.64 435.715 1012.05 435.446 1011.3 435.446C1010.51 435.446 1009.87 435.723 1009.39 436.276C1008.91 436.824 1008.67 437.513 1008.67 438.343Z" fill="#97A4AF"/>
<path d="M1104.36 443.199C1102.67 443.199 1101.32 442.643 1100.3 441.531C1099.29 440.418 1098.78 438.971 1098.78 437.189C1098.78 435.275 1099.3 433.747 1100.33 432.607C1101.37 431.467 1102.78 430.897 1104.56 430.897C1106.2 430.897 1107.52 431.451 1108.53 432.558C1109.53 433.664 1110.04 435.111 1110.04 436.899C1110.04 438.841 1109.52 440.377 1108.49 441.506C1107.46 442.635 1106.08 443.199 1104.36 443.199ZM1104.46 432.159C1103.21 432.159 1102.19 432.61 1101.41 433.512C1100.63 434.414 1100.24 435.598 1100.24 437.065C1100.24 438.531 1100.62 439.713 1101.38 440.609C1102.14 441.5 1103.14 441.946 1104.36 441.946C1105.66 441.946 1106.69 441.52 1107.45 440.667C1108.2 439.815 1108.58 438.623 1108.58 437.09C1108.58 435.518 1108.21 434.304 1107.48 433.446C1106.75 432.588 1105.74 432.159 1104.46 432.159ZM1117.99 442.61C1117.34 443.003 1116.56 443.199 1115.66 443.199C1114.45 443.199 1113.47 442.806 1112.73 442.021C1111.98 441.229 1111.61 440.205 1111.61 438.949C1111.61 437.549 1112.01 436.426 1112.82 435.579C1113.62 434.727 1114.69 434.301 1116.03 434.301C1116.78 434.301 1117.43 434.439 1118 434.716V436.11C1117.37 435.668 1116.7 435.446 1115.98 435.446C1115.11 435.446 1114.4 435.759 1113.84 436.384C1113.28 437.004 1113.01 437.82 1113.01 438.833C1113.01 439.829 1113.27 440.615 1113.79 441.19C1114.31 441.766 1115.02 442.054 1115.9 442.054C1116.64 442.054 1117.34 441.807 1117.99 441.315V442.61ZM1123.99 442.917C1123.67 443.094 1123.25 443.183 1122.72 443.183C1121.23 443.183 1120.49 442.353 1120.49 440.692V435.662H1119.03V434.5H1120.49V432.425L1121.85 431.985V434.5H1123.99V435.662H1121.85V440.452C1121.85 441.022 1121.94 441.428 1122.14 441.672C1122.33 441.915 1122.65 442.037 1123.1 442.037C1123.44 442.037 1123.74 441.943 1123.99 441.755V442.917Z" fill="#97A4AF"/>
<path d="M1217.16 443H1215.45L1209.32 433.512C1209.17 433.274 1209.04 433.025 1208.94 432.765H1208.89C1208.93 433.02 1208.96 433.565 1208.96 434.4V443H1207.56V431.097H1209.37L1215.33 440.435C1215.58 440.822 1215.74 441.088 1215.81 441.232H1215.84C1215.79 440.889 1215.76 440.305 1215.76 439.48V431.097H1217.16V443ZM1223.65 443.199C1222.39 443.199 1221.39 442.804 1220.63 442.012C1219.89 441.215 1219.51 440.161 1219.51 438.85C1219.51 437.422 1219.9 436.307 1220.68 435.504C1221.46 434.702 1222.52 434.301 1223.85 434.301C1225.11 434.301 1226.1 434.691 1226.81 435.471C1227.52 436.251 1227.88 437.333 1227.88 438.717C1227.88 440.073 1227.5 441.16 1226.73 441.979C1225.96 442.792 1224.94 443.199 1223.65 443.199ZM1223.75 435.446C1222.87 435.446 1222.18 435.745 1221.67 436.343C1221.16 436.935 1220.91 437.754 1220.91 438.8C1220.91 439.807 1221.17 440.601 1221.68 441.182C1222.19 441.763 1222.88 442.054 1223.75 442.054C1224.63 442.054 1225.3 441.769 1225.77 441.199C1226.25 440.629 1226.49 439.818 1226.49 438.767C1226.49 437.704 1226.25 436.885 1225.77 436.31C1225.3 435.734 1224.63 435.446 1223.75 435.446ZM1236.74 434.5L1233.35 443H1232.01L1228.79 434.5H1230.29L1232.45 440.676C1232.61 441.13 1232.71 441.525 1232.75 441.863H1232.78C1232.83 441.437 1232.92 441.052 1233.04 440.709L1235.3 434.5H1236.74Z" fill="#97A4AF"/>
<path d="M1317.56 443V431.097H1320.85C1325.04 431.097 1327.14 433.031 1327.14 436.899C1327.14 438.736 1326.56 440.214 1325.39 441.332C1324.23 442.444 1322.67 443 1320.71 443H1317.56ZM1318.96 432.358V441.738H1320.73C1322.29 441.738 1323.51 441.32 1324.38 440.485C1325.24 439.649 1325.68 438.465 1325.68 436.932C1325.68 433.883 1324.06 432.358 1320.81 432.358H1318.96ZM1336.13 439.09H1330.13C1330.15 440.037 1330.4 440.767 1330.89 441.282C1331.38 441.796 1332.05 442.054 1332.9 442.054C1333.86 442.054 1334.74 441.738 1335.54 441.107V442.386C1334.79 442.928 1333.81 443.199 1332.58 443.199C1331.38 443.199 1330.43 442.815 1329.75 442.045C1329.06 441.271 1328.72 440.183 1328.72 438.783C1328.72 437.461 1329.09 436.384 1329.84 435.554C1330.59 434.719 1331.52 434.301 1332.63 434.301C1333.75 434.301 1334.61 434.66 1335.22 435.38C1335.83 436.099 1336.13 437.098 1336.13 438.376V439.09ZM1334.73 437.937C1334.73 437.151 1334.54 436.539 1334.16 436.102C1333.79 435.665 1333.27 435.446 1332.61 435.446C1331.97 435.446 1331.42 435.676 1330.97 436.135C1330.53 436.595 1330.25 437.195 1330.14 437.937H1334.73ZM1343.99 442.61C1343.34 443.003 1342.56 443.199 1341.67 443.199C1340.45 443.199 1339.47 442.806 1338.73 442.021C1337.99 441.229 1337.62 440.205 1337.62 438.949C1337.62 437.549 1338.02 436.426 1338.82 435.579C1339.62 434.727 1340.69 434.301 1342.03 434.301C1342.78 434.301 1343.44 434.439 1344.01 434.716V436.11C1343.38 435.668 1342.7 435.446 1341.98 435.446C1341.11 435.446 1340.4 435.759 1339.84 436.384C1339.29 437.004 1339.01 437.82 1339.01 438.833C1339.01 439.829 1339.27 440.615 1339.79 441.19C1340.32 441.766 1341.02 442.054 1341.9 442.054C1342.64 442.054 1343.34 441.807 1343.99 441.315V442.61Z" fill="#97A4AF"/>
</svg>
