<svg width="30" height="30" viewBox="0 0 30 30" fill="none" xmlns="http://www.w3.org/2000/svg">
<path fill-rule="evenodd" clip-rule="evenodd" d="M16.25 3.75C16.913 3.75 17.5489 4.01339 18.0178 4.48223C18.4866 4.95107 18.75 5.58696 18.75 6.25V9.545C18.75 9.87652 18.6183 10.1945 18.3839 10.4289C18.1495 10.6633 17.8315 10.795 17.5 10.795C17.1685 10.795 16.8505 10.6633 16.6161 10.4289C16.3817 10.1945 16.25 9.87652 16.25 9.545V6.25H7.5C7.16848 6.25 6.85054 6.3817 6.61612 6.61612C6.3817 6.85054 6.25 7.16848 6.25 7.5V22.5C6.25 22.8315 6.3817 23.1495 6.61612 23.3839C6.85054 23.6183 7.16848 23.75 7.5 23.75H15C15.3315 23.75 15.6495 23.6183 15.8839 23.3839C16.1183 23.1495 16.25 22.8315 16.25 22.5V20.455C16.25 20.1235 16.3817 19.8055 16.6161 19.5711C16.8505 19.3367 17.1685 19.205 17.5 19.205C17.8315 19.205 18.1495 19.3367 18.3839 19.5711C18.6183 19.8055 18.75 20.1235 18.75 20.455V23.75C18.75 24.413 18.4866 25.0489 18.0178 25.5178C17.5489 25.9866 16.913 26.25 16.25 26.25H6.25C5.58696 26.25 4.95107 25.9866 4.48223 25.5178C4.01339 25.0489 3.75 24.413 3.75 23.75V6.25C3.75 5.58696 4.01339 4.95107 4.48223 4.48223C4.95107 4.01339 5.58696 3.75 6.25 3.75H16.25Z" fill="#132144"/>
<path d="M12.5 15H26.25M26.25 15L22.5 10.625M26.25 15L22.5 19.375" stroke="#132144" stroke-width="2" stroke-linecap="round" stroke-linejoin="round"/>
</svg>
