<svg width="28" height="28" viewBox="0 0 28 28" fill="none" xmlns="http://www.w3.org/2000/svg">
<circle cx="14" cy="14" r="14" fill="#FF0C0C"/>
<path fill-rule="evenodd" clip-rule="evenodd" d="M18.8452 9.82934C18.9468 9.73119 19.0279 9.61379 19.0836 9.48397C19.1394 9.35416 19.1687 9.21454 19.17 9.07326C19.1712 8.93198 19.1443 8.79187 19.0908 8.66111C19.0373 8.53034 18.9583 8.41155 18.8584 8.31164C18.7585 8.21174 18.6397 8.13273 18.5089 8.07923C18.3781 8.02573 18.238 7.99881 18.0967 8.00004C17.9555 8.00127 17.8158 8.03062 17.686 8.08638C17.5562 8.14215 17.4388 8.22321 17.3407 8.32483L13.5783 12.0872L9.81702 8.32483C9.61751 8.12518 9.34686 8.01296 9.0646 8.01286C8.78235 8.01276 8.51162 8.12479 8.31197 8.3243C8.11232 8.52381 8.0001 8.79446 8 9.07671C7.9999 9.35896 8.11193 9.62969 8.31144 9.82934L12.0738 13.5917L8.31144 17.354C8.21265 17.4529 8.1343 17.5703 8.08087 17.6994C8.02743 17.8285 7.99995 17.9669 8 18.1067C8.00005 18.2464 8.02763 18.3848 8.08115 18.5139C8.13468 18.643 8.21311 18.7603 8.31197 18.8591C8.41083 18.9579 8.52818 19.0362 8.65731 19.0897C8.78645 19.1431 8.92485 19.1706 9.0646 19.1705C9.20436 19.1705 9.34274 19.1429 9.47184 19.0894C9.60094 19.0358 9.71823 18.9574 9.81702 18.8586L13.5783 15.0962L17.3407 18.8586C17.4388 18.9602 17.5562 19.0412 17.686 19.097C17.8158 19.1528 17.9555 19.1821 18.0967 19.1834C18.238 19.1846 18.3781 19.1577 18.5089 19.1042C18.6397 19.0507 18.7585 18.9717 18.8584 18.8717C18.9583 18.7718 19.0373 18.653 19.0908 18.5223C19.1443 18.3915 19.1712 18.2514 19.17 18.1101C19.1687 17.9689 19.1394 17.8292 19.0836 17.6994C19.0279 17.5696 18.9468 17.4522 18.8452 17.354L15.0828 13.5917L18.8452 9.82934Z" fill="white"/>
</svg>
