<svg width="30" height="30" viewBox="0 0 30 30" fill="none" xmlns="http://www.w3.org/2000/svg">
<path d="M13.75 10.625C13.75 11.4538 13.4208 12.2487 12.8347 12.8347C12.2487 13.4208 11.4538 13.75 10.625 13.75C9.7962 13.75 9.00134 13.4208 8.41529 12.8347C7.82924 12.2487 7.5 11.4538 7.5 10.625C7.5 9.7962 7.82924 9.00134 8.41529 8.41529C9.00134 7.82924 9.7962 7.5 10.625 7.5C11.4538 7.5 12.2487 7.82924 12.8347 8.41529C13.4208 9.00134 13.75 9.7962 13.75 10.625ZM22.5 6.875C22.5 7.7038 22.1708 8.49866 21.5847 9.08471C20.9987 9.67076 20.2038 10 19.375 10C18.5462 10 17.7513 9.67076 17.1653 9.08471C16.5792 8.49866 16.25 7.7038 16.25 6.875C16.25 6.0462 16.5792 5.25134 17.1653 4.66529C17.7513 4.07924 18.5462 3.75 19.375 3.75C20.2038 3.75 20.9987 4.07924 21.5847 4.66529C22.1708 5.25134 22.5 6.0462 22.5 6.875Z" stroke="black" stroke-width="2"/>
<path d="M19.3753 25C18.1253 26.25 3.7503 25.625 2.5003 25C1.2503 24.375 6.7628 18.75 11.2503 18.75C15.7378 18.75 20.0953 24.28 19.3753 25Z" stroke="black" stroke-width="2" stroke-linecap="round" stroke-linejoin="round"/>
<path fill-rule="evenodd" clip-rule="evenodd" d="M19.1894 20.3625C20.0019 21.2388 20.6869 22.1375 21.2106 22.8938C21.8481 22.8975 22.6394 22.8962 23.4631 22.8837C24.421 22.8734 25.3784 22.8376 26.3344 22.7763C26.7731 22.7463 27.1906 22.7062 27.5519 22.6537C27.8919 22.605 28.2644 22.535 28.5719 22.4163C28.8706 22.3025 29.1644 22.1075 29.3856 21.8038C29.6069 21.5013 29.6994 21.1663 29.7194 20.8638C29.7544 20.305 29.5469 19.7838 29.3431 19.3988C28.9156 18.5925 28.1406 17.715 27.2356 16.9263C25.4456 15.3663 22.6831 13.75 19.9994 13.75C18.5456 13.75 17.4619 13.935 16.4894 14.4862C15.6119 14.9837 14.9194 15.7387 14.1669 16.5587L14.0794 16.655L13.8906 16.86C14.748 17.0858 15.5648 17.4438 16.3119 17.9213C16.9331 17.2538 17.3056 16.8963 17.7219 16.6613C18.1594 16.4125 18.7469 16.25 19.9994 16.25C21.8031 16.25 23.9944 17.4163 25.5919 18.81C26.0837 19.2268 26.5265 19.6982 26.9119 20.215C26.6894 20.24 26.4369 20.2638 26.1581 20.2825C25.3456 20.34 24.3731 20.37 23.4269 20.385C22.3215 20.4004 21.216 20.3991 20.1106 20.3813C20.0156 20.3813 19.9406 20.3788 19.8906 20.3775H19.8156L19.1906 20.3638L19.1894 20.3625Z" fill="black"/>
</svg>
